<svg xmlns="http://www.w3.org/2000/svg" width="18" height="18" viewBox="0 0 18 18" fill="none">
    <g opacity="0.5">
        <path
            d="M17.5 8.89398C17.5 13.524 13.7 17.288 9 17.288C4.3 17.288 0.5 13.524 0.5 8.89398C0.5 4.26398 4.3 0.5 9 0.5C13.7 0.5 17.5 4.26398 17.5 8.89398Z"
            stroke="#333333" />
        <path
            d="M8.32425 14.0034H9.70425V7.40344H8.32425V14.0034ZM9.00826 6.16742C9.51225 6.16742 9.87225 5.84342 9.87225 5.33942C9.87225 4.84742 9.51225 4.52344 9.00826 4.52344C8.50425 4.52344 8.15625 4.84742 8.15625 5.33942C8.15625 5.84342 8.50425 6.16742 9.00826 6.16742Z"
            fill="#333333" />
    </g>
</svg>

